<?xml version="1.0" encoding="UTF-8"?>
<!-- Generated by Pixelmator Pro 3.8 -->
<svg width="3300" height="2200" viewBox="0 0 3300 2200" xmlns="http://www.w3.org/2000/svg">
    <g id="Notes">
        <path id="artboard" fill="#ffffff" stroke="none" d="M 0 0 L 3300 0 L 3300 2200 L 0 2200 Z"/>
        <path id="Path" fill="none" stroke="#000000" stroke-width="0.5" d="M 263 292 L 3036 292"/>
        <text id="WeightScale-Variations" xml:space="preserve" x="261" y="326" font-family="Helvetica" font-size="13" font-weight="700" fill="#000000">Weight/Scale Variations</text>
        <text id="Ultralight" xml:space="preserve" x="531" y="326" font-family="Helvetica" font-size="13" fill="#000000">Ultralight</text>
        <text id="Thin" xml:space="preserve" x="840" y="326" font-family="Helvetica" font-size="13" fill="#000000">Thin</text>
        <text id="Light" xml:space="preserve" x="1136" y="326" font-family="Helvetica" font-size="13" fill="#000000">Light</text>
        <text id="Regular" xml:space="preserve" x="1424" y="326" font-family="Helvetica" font-size="13" fill="#000000">Regular</text>
        <text id="Medium" xml:space="preserve" x="1720" y="326" font-family="Helvetica" font-size="13" fill="#000000">Medium</text>
        <text id="Semibold" xml:space="preserve" x="2013" y="326" font-family="Helvetica" font-size="13" fill="#000000">Semibold</text>
        <text id="Bold" xml:space="preserve" x="2323" y="326" font-family="Helvetica" font-size="13" fill="#000000">Bold</text>
        <text id="Heavy" xml:space="preserve" x="2615" y="326" font-family="Helvetica" font-size="13" fill="#000000">Heavy</text>
        <text id="Black" xml:space="preserve" x="2914" y="326" font-family="Helvetica" font-size="13" fill="#000000">Black</text>
        <path id="path1" fill="none" stroke="#000000" stroke-width="0.5" d="M 263 1903 L 3036 1903"/>
        <g id="Group">
            <path id="path2" fill="#000000" stroke="none" d="M 272.248047 1933.830078 C 276.603516 1933.830078 280.138672 1930.304688 280.138672 1925.949219 C 280.138672 1921.59375 276.603516 1918.068359 272.248047 1918.068359 C 267.902344 1918.068359 264.367188 1921.59375 264.367188 1925.949219 C 264.367188 1930.304688 267.902344 1933.830078 272.248047 1933.830078 Z M 272.248047 1932.345703 C 268.712891 1932.345703 265.861328 1929.484375 265.861328 1925.949219 C 265.861328 1922.414063 268.712891 1919.552734 272.248047 1919.552734 C 275.783203 1919.552734 278.644531 1922.414063 278.644531 1925.949219 C 278.644531 1929.484375 275.783203 1932.345703 272.248047 1932.345703 Z M 272.970703 1928.791016 L 272.970703 1923.097656 C 272.970703 1922.648438 272.677734 1922.345703 272.228516 1922.345703 C 271.798828 1922.345703 271.505859 1922.648438 271.505859 1923.097656 L 271.505859 1928.791016 C 271.505859 1929.230469 271.798828 1929.533203 272.228516 1929.533203 C 272.677734 1929.533203 272.970703 1929.230469 272.970703 1928.791016 Z M 269.40625 1926.671875 L 275.089844 1926.671875 C 275.529297 1926.671875 275.832031 1926.378906 275.832031 1925.949219 C 275.832031 1925.509766 275.529297 1925.207031 275.089844 1925.207031 L 269.40625 1925.207031 C 268.957031 1925.207031 268.654297 1925.509766 268.654297 1925.949219 C 268.654297 1926.378906 268.957031 1926.671875 269.40625 1926.671875 Z"/>
        </g>
        <g id="g1">
            <path id="path3" fill="#000000" stroke="none" d="M 293.214966 1935.910156 C 298.713013 1935.910156 303.175934 1931.447266 303.175934 1925.949219 C 303.175934 1920.451172 298.713013 1915.988281 293.214966 1915.988281 C 287.716949 1915.988281 283.254028 1920.451172 283.254028 1925.949219 C 283.254028 1931.447266 287.716949 1935.910156 293.214966 1935.910156 Z M 293.214966 1934.25 C 288.625153 1934.25 284.914215 1930.539063 284.914215 1925.949219 C 284.914215 1921.359375 288.625153 1917.648438 293.214966 1917.648438 C 297.80481 1917.648438 301.515747 1921.359375 301.515747 1925.949219 C 301.515747 1930.539063 297.80481 1934.25 293.214966 1934.25 Z M 294.025513 1929.630859 L 294.025513 1922.248047 C 294.025513 1921.75 293.683716 1921.408203 293.195435 1921.408203 C 292.716919 1921.408203 292.384888 1921.75 292.384888 1922.248047 L 292.384888 1929.630859 C 292.384888 1930.119141 292.716919 1930.460938 293.195435 1930.460938 C 293.683716 1930.460938 294.025513 1930.128906 294.025513 1929.630859 Z M 289.513794 1926.75 L 296.906372 1926.75 C 297.394653 1926.75 297.73645 1926.427734 297.73645 1925.949219 C 297.73645 1925.460938 297.394653 1925.119141 296.906372 1925.119141 L 289.513794 1925.119141 C 289.015747 1925.119141 288.683716 1925.460938 288.683716 1925.949219 C 288.683716 1926.427734 289.015747 1926.75 289.513794 1926.75 Z"/>
        </g>
        <g id="g2">
            <path id="path4" fill="#000000" stroke="none" d="M 319.894714 1938.664063 C 326.916168 1938.664063 332.619293 1932.970703 332.619293 1925.949219 C 332.619293 1918.927734 326.916168 1913.224609 319.894714 1913.224609 C 312.87323 1913.224609 307.179871 1918.927734 307.179871 1925.949219 C 307.179871 1932.970703 312.87323 1938.664063 319.894714 1938.664063 Z M 319.894714 1936.847656 C 313.869293 1936.847656 308.996246 1931.974609 308.996246 1925.949219 C 308.996246 1919.923828 313.869293 1915.050781 319.894714 1915.050781 C 325.920105 1915.050781 330.793152 1919.923828 330.793152 1925.949219 C 330.793152 1931.974609 325.920105 1936.847656 319.894714 1936.847656 Z M 320.783386 1930.783203 L 320.783386 1921.085938 C 320.783386 1920.539063 320.412292 1920.158203 319.875153 1920.158203 C 319.357605 1920.158203 318.986481 1920.539063 318.986481 1921.085938 L 318.986481 1930.783203 C 318.986481 1931.320313 319.357605 1931.701172 319.875153 1931.701172 C 320.412292 1931.701172 320.783386 1931.330078 320.783386 1930.783203 Z M 315.041199 1926.828125 L 324.738464 1926.828125 C 325.275574 1926.828125 325.656433 1926.466797 325.656433 1925.949219 C 325.656433 1925.402344 325.285339 1925.03125 324.738464 1925.03125 L 315.041199 1925.03125 C 314.494324 1925.03125 314.12323 1925.402344 314.12323 1925.949219 C 314.12323 1926.466797 314.494324 1926.828125 315.041199 1926.828125 Z"/>
        </g>
        <text id="Design-Variations" xml:space="preserve" x="261" y="1957" font-family="Helvetica" font-size="13" font-weight="700" fill="#000000">Design Variations</text>
        <text id="Symbols-are-supported-in" xml:space="preserve" x="261" y="1975" font-family="Helvetica" font-size="13" fill="#000000">Symbols are supported in up to nine weights and three scales.</text>
        <text id="For-optimal-layout-with" xml:space="preserve" x="261" y="1993" font-family="Helvetica" font-size="13" fill="#000000">For optimal layout with text and other symbols, vertically align</text>
        <text id="symbols-with-the-adjacent" xml:space="preserve" x="261" y="2011" font-family="Helvetica" font-size="13" fill="#000000">symbols with the adjacent text.</text>
        <path id="path5" fill="none" stroke="#00aeef" stroke-width="0.5" d="M 776 1919 L 776 1933"/>
        <g id="g3">
            <path id="path6" fill="#000000" stroke="none" d="M 779.310547 1933.15625 C 779.828125 1933.15625 780.082031 1932.960938 780.267578 1932.414063 L 784.378906 1920.910156 L 784.427734 1920.910156 L 788.548828 1932.414063 C 788.734375 1932.960938 788.988281 1933.15625 789.496094 1933.15625 C 790.013672 1933.15625 790.345703 1932.84375 790.345703 1932.355469 C 790.345703 1932.189453 790.316406 1932.033203 790.238281 1931.828125 L 785.658203 1919.630859 C 785.433594 1919.035156 785.033203 1918.732422 784.408203 1918.732422 C 783.802734 1918.732422 783.392578 1919.025391 783.177734 1919.621094 L 778.597656 1931.837891 C 778.519531 1932.042969 778.490234 1932.199219 778.490234 1932.365234 C 778.490234 1932.853516 778.802734 1933.15625 779.310547 1933.15625 Z M 781.351563 1928.966797 L 787.484375 1928.966797 C 787.884766 1928.966797 788.216797 1928.634766 788.216797 1928.234375 C 788.216797 1927.824219 787.884766 1927.501953 787.484375 1927.501953 L 781.351563 1927.501953 C 780.951172 1927.501953 780.619141 1927.824219 780.619141 1928.234375 C 780.619141 1928.634766 780.951172 1928.966797 781.351563 1928.966797 Z"/>
        </g>
        <path id="path7" fill="none" stroke="#00aeef" stroke-width="0.5" d="M 792.835999 1919 L 792.835999 1933"/>
        <text id="Margins" xml:space="preserve" x="774" y="1957" font-family="Helvetica" font-size="13" font-weight="700" fill="#000000">Margins</text>
        <text id="Leading-and-trailing-margins" xml:space="preserve" x="774" y="1975" font-family="Helvetica" font-size="13" fill="#000000">Leading and trailing margins on the left and right side of each symbol</text>
        <text id="can-be-adjusted-by" xml:space="preserve" x="774" y="1993" font-family="Helvetica" font-size="13" fill="#000000">can be adjusted by modifying the x-location of the margin guidelines.</text>
        <text id="Modifications-are-automatically-applied" xml:space="preserve" x="774" y="2011" font-family="Helvetica" font-size="13" fill="#000000">Modifications are automatically applied proportionally to all</text>
        <text id="scales-and-weights" xml:space="preserve" x="774" y="2029" font-family="Helvetica" font-size="13" fill="#000000">scales and weights.</text>
        <g id="g4">
            <path id="path8" fill="#000000" stroke="none" d="M 1291.841797 1935.626953 L 1293.414063 1937.199219 C 1294.273438 1938.078125 1295.279297 1938.019531 1296.1875 1936.994141 L 1308.326172 1923.351563 L 1307.349609 1922.375 L 1295.298828 1935.910156 C 1294.9375 1936.300781 1294.605469 1936.398438 1294.136719 1935.929688 L 1293.101563 1934.904297 C 1292.642578 1934.445313 1292.740234 1934.113281 1293.140625 1933.742188 L 1306.636719 1921.310547 L 1305.660156 1920.34375 L 1292.046875 1932.863281 C 1291.050781 1933.78125 1290.982422 1934.757813 1291.841797 1935.626953 Z M 1300.816406 1916.134766 C 1300.40625 1916.535156 1300.367188 1917.111328 1300.601563 1917.492188 C 1300.826172 1917.853516 1301.294922 1918.097656 1301.919922 1917.941406 C 1303.091797 1917.609375 1304.439453 1917.462891 1305.699219 1918.126953 L 1305.162109 1919.552734 C 1304.839844 1920.353516 1305.015625 1920.929688 1305.503906 1921.4375 L 1307.554688 1923.498047 C 1308.023438 1923.976563 1308.462891 1923.986328 1308.970703 1923.888672 L 1309.859375 1923.742188 L 1310.376953 1924.25 L 1310.337891 1924.699219 C 1310.318359 1925.158203 1310.445313 1925.558594 1310.894531 1925.998047 L 1311.568359 1926.662109 C 1312.027344 1927.121094 1312.671875 1927.160156 1313.130859 1926.701172 L 1315.728516 1924.09375 C 1316.1875 1923.625 1316.158203 1923.019531 1315.689453 1922.560547 L 1315.005859 1921.876953 C 1314.566406 1921.4375 1314.195313 1921.271484 1313.736328 1921.300781 L 1313.267578 1921.349609 L 1312.779297 1920.861328 L 1312.984375 1919.923828 C 1313.111328 1919.376953 1312.935547 1918.927734 1312.408203 1918.400391 L 1310.152344 1916.164063 C 1307.564453 1913.595703 1303.033203 1913.957031 1300.816406 1916.134766 Z M 1302.232422 1916.544922 C 1303.990234 1915.265625 1307.427734 1915.412109 1308.970703 1916.935547 L 1311.431641 1919.376953 C 1311.636719 1919.582031 1311.675781 1919.738281 1311.617188 1920.041016 L 1311.324219 1921.369141 L 1312.671875 1922.707031 L 1313.550781 1922.658203 C 1313.775391 1922.648438 1313.853516 1922.667969 1314.019531 1922.833984 L 1314.527344 1923.332031 L 1312.359375 1925.5 L 1311.861328 1925.001953 C 1311.695313 1924.826172 1311.666016 1924.757813 1311.675781 1924.523438 L 1311.734375 1923.654297 L 1310.396484 1922.306641 L 1309.029297 1922.541016 C 1308.746094 1922.599609 1308.619141 1922.580078 1308.394531 1922.365234 L 1306.607422 1920.587891 C 1306.392578 1920.382813 1306.373047 1920.246094 1306.509766 1919.914063 L 1307.427734 1917.619141 C 1306.207031 1916.349609 1304.019531 1916.115234 1302.310547 1916.701172 C 1302.173828 1916.75 1302.125 1916.623047 1302.232422 1916.544922 Z"/>
        </g>
        <text id="Exporting" xml:space="preserve" x="1287" y="1957" font-family="Helvetica" font-size="13" font-weight="700" fill="#000000">Exporting</text>
        <text id="Symbols-should-be-outlined" xml:space="preserve" x="1287" y="1975" font-family="Helvetica" font-size="13" fill="#000000">Symbols should be outlined when exporting to ensure the</text>
        <text id="design-is-preserved-when" xml:space="preserve" x="1287" y="1993" font-family="Helvetica" font-size="13" fill="#000000">design is preserved when submitting to Xcode.</text>
        <text id="template-version" xml:space="preserve" x="2948" y="1937" font-family="Helvetica" font-size="13" fill="#000000">Template v.7.0</text>
        <text id="Requires-Xcode-26-or" xml:space="preserve" x="2861" y="1955" font-family="Helvetica" font-size="13" fill="#000000">Requires Xcode 26 or greater</text>
        <text id="Generated-from-activitymonitor" xml:space="preserve" x="2852" y="1973" font-family="Helvetica" font-size="13" fill="#000000">Generated from activity.monitor</text>
        <text id="Typeset-at-1000-points" xml:space="preserve" x="2898" y="1991" font-family="Helvetica" font-size="13" fill="#000000">Typeset at 100.0 points</text>
        <text id="Small" xml:space="preserve" x="261" y="730" font-family="Helvetica" font-size="13" fill="#000000">Small</text>
        <text id="text1" xml:space="preserve" x="261" y="1160" font-family="Helvetica" font-size="13" fill="#000000">Medium</text>
        <text id="Large" xml:space="preserve" x="261" y="1590" font-family="Helvetica" font-size="13" fill="#000000">Large</text>
    </g>
    <g id="Guides">
        <g id="H-reference">
            <path id="path9" fill="#27aae1" stroke="none" d="M 339.993652 696 L 342.637756 696 L 368.328094 628.867676 L 369.030304 628.867676 L 369.030304 625.541016 L 367.122589 625.541016 Z M 350.688507 671.520142 L 385.981506 671.520142 L 385.231506 669.271484 L 351.438507 669.271484 Z M 394.119598 696 L 396.763702 696 L 369.638214 625.541016 L 368.432587 625.541016 L 368.432587 628.867676 Z"/>
        </g>
        <path id="Baseline-S" fill="none" stroke="#27aae1" stroke-width="0.5" d="M 263 696 L 3036 696"/>
        <path id="Capline-S" fill="none" stroke="#27aae1" stroke-width="0.5" d="M 263 625.541016 L 3036 625.541016"/>
        <g id="g5">
            <path id="path10" fill="#27aae1" stroke="none" d="M 339.993652 1126 L 342.637756 1126 L 368.328094 1058.867676 L 369.030304 1058.867676 L 369.030304 1055.541016 L 367.122589 1055.541016 Z M 350.688507 1101.520142 L 385.981506 1101.520142 L 385.231506 1099.271484 L 351.438507 1099.271484 Z M 394.119598 1126 L 396.763702 1126 L 369.638214 1055.541016 L 368.432587 1055.541016 L 368.432587 1058.867676 Z"/>
        </g>
        <path id="Baseline-M" fill="none" stroke="#27aae1" stroke-width="0.5" d="M 263 1126 L 3036 1126"/>
        <path id="Capline-M" fill="none" stroke="#27aae1" stroke-width="0.5" d="M 263 1055.540039 L 3036 1055.540039"/>
        <g id="g6">
            <path id="path11" fill="#27aae1" stroke="none" d="M 339.993652 1556 L 342.637756 1556 L 368.328094 1488.867676 L 369.030304 1488.867676 L 369.030304 1485.541016 L 367.122589 1485.541016 Z M 350.688507 1531.52002 L 385.981506 1531.52002 L 385.231506 1529.271484 L 351.438507 1529.271484 Z M 394.119598 1556 L 396.763702 1556 L 369.638214 1485.541016 L 368.432587 1485.541016 L 368.432587 1488.867676 Z"/>
        </g>
        <path id="Baseline-L" fill="none" stroke="#27aae1" stroke-width="0.5" d="M 263 1556 L 3036 1556"/>
        <path id="Capline-L" fill="none" stroke="#27aae1" stroke-width="0.5" d="M 263 1485.540039 L 3036 1485.540039"/>
        <path id="right-margin-Black-S" fill="none" stroke="#00aeef" stroke-width="0.5" d="M 2981.300049 600.784912 L 2981.300049 720.120972"/>
        <path id="left-margin-Black-S" fill="none" stroke="#00aeef" stroke-width="0.5" d="M 2885.5 600.784912 L 2885.5 720.120972"/>
        <path id="right-margin-Regular-S" fill="none" stroke="#00aeef" stroke-width="0.5" d="M 1495.180054 600.784912 L 1495.180054 720.120972"/>
        <path id="left-margin-Regular-S" fill="none" stroke="#00aeef" stroke-width="0.5" d="M 1404.51001 600.784912 L 1404.51001 720.120972"/>
        <path id="right-margin-Ultralight-S" fill="none" stroke="#00aeef" stroke-width="0.5" d="M 603.072998 600.784912 L 603.072998 720.120972"/>
        <path id="left-margin-Ultralight-S" fill="none" stroke="#00aeef" stroke-width="0.5" d="M 516.349976 600.784912 L 516.349976 720.120972"/>
    </g>
    <g id="Symbols">
        <g id="Black-S">
            <path id="Shape" fill="none" stroke="#000000" stroke-width="0.5" stroke-linecap="round" stroke-linejoin="round" d="M 2965.564453 668.904663 C 2962.100342 673.850464 2959.408936 675.123169 2957.337158 675.123169 C 2954.681396 675.123169 2951.937744 673.502686 2949.423828 669.286011 C 2947.462646 665.99646 2945.709717 662.686523 2944.604492 661.477173 C 2942.935303 659.650757 2942.192627 659.885864 2939.525635 665.113403 C 2937.76001 668.574463 2935.212646 672.075562 2933.761963 673.279175 C 2931.720703 674.973267 2929.494629 675.419922 2925.943359 674.079468 C 2921.613525 672.445068 2921.753662 672.504028 2920.305176 677.240723 C 2919.460449 680.001221 2918.182129 685.404419 2917.618164 689.571411 C 2916.942627 694.570923 2915.547852 697.066895 2914.053711 697.066895 C 2912.80835 697.066895 2910.970703 695.498047 2910.528809 693.52417 C 2910.086426 691.550293 2908.598633 675.60376 2908.598633 675.60376 C 2908.598633 675.60376 2907.771729 661.885864 2906.929443 668.748657 C 2906.418945 672.911621 2905.613037 677.222656 2904.576904 678.258667 C 2903.128906 679.706665 2901.427734 679.750854 2899.25293 677.798218 C 2897.696777 676.401245 2894.274414 674.480835 2891.862061 673.389038 C 2889.449707 672.297363 2887.803711 670.351074 2887.803711 669.515015 C 2887.803711 668.679199 2889.777588 668.328369 2892.189941 668.735474 C 2894.602295 669.142822 2897.493652 669.302002 2898.789551 669.652344 C 2900.701172 670.168823 2901.006836 667.765869 2901.944824 654.829956 C 2902.580811 646.057495 2903.826904 636.412354 2904.526123 633.408569 C 2905.225586 630.404907 2906.94043 627.391357 2907.986816 627.049072 C 2909.107178 626.682617 2910.737793 628.914429 2911.231689 632.028076 C 2911.692383 634.935425 2912.05249 644.073486 2912.573486 652.407227 C 2913.094482 660.741089 2913.83374 668.510132 2914.215332 669.671997 C 2914.756104 671.318359 2915.490479 671.203125 2917.544189 669.149414 C 2918.993164 667.700195 2921.446045 666.623901 2922.850342 667.03125 C 2924.254883 667.438354 2926.49707 668.494995 2927.977539 669.105957 C 2930.016113 669.94751 2931.438232 668.708374 2933.841797 663.996582 C 2935.587158 660.575317 2938.109619 656.867798 2939.447754 655.757446 C 2940.802002 654.633423 2943.428955 653.930054 2945.257568 654.510376 C 2947.063965 655.083618 2951.057617 660.58313 2951.057617 660.58313 C 2951.057617 660.58313 2954.426514 666.565552 2955.486328 667.689331 C 2957.041748 669.338501 2957.962891 669.269653 2960.329102 666.655273 C 2961.941895 664.873535 2965.812988 663.309326 2965.812988 663.309326 C 2965.812988 663.309326 2969.431152 664.587891 2970.486084 666.276978 C 2971.541016 667.966187 2974.178955 669.813721 2976.117188 670.098389 C 2978.055664 670.383179 2979.561035 671.646851 2979.922119 672.743408 C 2980.347412 674.034058 2979.028076 675.113403 2976.004639 675.113403 C 2973.359131 675.113403 2969.821777 673.70752 2968.186279 671.900269 L 2965.564453 668.904663 Z"/>
        </g>
        <g id="Regular-S">
            <path id="path14" fill="none" stroke="#000000" stroke-width="0.5" stroke-linecap="round" stroke-linejoin="round" d="M 1478.726074 667.771851 C 1475.562256 672.288696 1473.095581 673.600098 1471.203613 673.600098 C 1468.778198 673.600098 1466.802368 671.988647 1464.50647 668.137573 C 1462.71521 665.133179 1460.423706 661.771484 1459.414307 660.667114 C 1457.889648 658.998901 1457.08252 659.631958 1454.646973 664.40625 C 1453.034424 667.567139 1450.631226 671.052734 1449.306641 672.151978 C 1447.442505 673.699219 1445.952026 673.793457 1442.708618 672.569214 C 1438.754272 671.076538 1438.439453 671.245483 1437.116577 675.571411 C 1436.345215 678.092529 1435.293335 683.268799 1434.778809 687.074463 C 1434.161499 691.640503 1433.139771 693.993774 1431.775269 693.993774 C 1430.637939 693.993774 1429.376831 692.518921 1428.973022 690.716187 C 1428.569214 688.913574 1427.761475 681.539063 1427.177856 674.328491 C 1426.216309 662.441284 1426.038086 661.863281 1425.269043 668.130981 C 1424.802612 671.932983 1423.646729 675.817749 1422.700562 676.763916 C 1421.378174 678.086304 1420.383057 677.947754 1418.396851 676.164429 C 1416.975708 674.888672 1414.010498 673.029175 1411.807251 672.031982 C 1409.604126 671.034912 1407.801392 669.594482 1407.801392 668.830933 C 1407.801392 668.067505 1409.604126 667.74707 1411.807251 668.118896 C 1414.010498 668.490845 1416.781738 669.056885 1417.965698 669.376831 C 1419.711304 669.848511 1420.317627 667.205811 1421.174438 655.391602 C 1421.755127 647.379761 1422.753052 638.5802 1423.391968 635.836914 C 1424.03064 633.093628 1425.334961 630.593384 1426.290649 630.280762 C 1427.313721 629.946045 1428.342285 631.696533 1428.793091 634.540161 C 1429.213867 637.195435 1429.947632 645.595337 1430.423462 653.206543 C 1430.899292 660.817627 1431.574097 667.913208 1431.922852 668.974243 C 1432.416748 670.477783 1433.087524 670.372559 1434.963135 668.496948 C 1436.286499 667.173462 1438.418823 666.394775 1439.701538 666.766724 C 1440.984131 667.13855 1443.139648 667.899292 1444.491577 668.457275 C 1446.353516 669.22583 1447.652222 668.094238 1449.847656 663.791016 C 1451.441528 660.666382 1453.745361 657.280396 1454.967407 656.266235 C 1456.204468 655.239746 1458.518188 654.84436 1460.18811 655.374512 C 1461.837891 655.897949 1464.234863 658.4104 1465.514893 660.957397 C 1466.794922 663.504395 1468.634155 666.428223 1469.602173 667.45459 C 1471.022583 668.960693 1471.878784 668.749756 1474.039673 666.362061 C 1475.512329 664.734863 1477.769043 663.40332 1479.054443 663.40332 C 1480.339966 663.40332 1482.179932 664.665527 1483.143433 666.208008 C 1484.106812 667.750854 1486.343384 669.225586 1488.11377 669.485596 C 1489.884155 669.745728 1491.602539 670.777832 1491.932373 671.779297 C 1492.320557 672.958008 1491.02771 673.600098 1488.266357 673.600098 C 1485.850342 673.600098 1482.857056 672.336548 1481.363403 670.686035 L 1478.726074 667.771851 Z"/>
        </g>
        <g id="Ultralight-S">
            <path id="path16" fill="none" stroke="#000000" stroke-width="0.5" stroke-linecap="round" stroke-linejoin="round" d="M 586.671997 667.368408 C 583.733704 671.563477 581.44281 672.781372 579.685486 672.781372 C 577.432983 672.781372 575.861755 671.150757 573.72937 667.574219 C 572.065735 664.783813 569.739319 661.477783 568.801819 660.452026 C 567.385803 658.902832 564.042664 664.001709 564.042664 664.001709 C 564.042664 664.001709 560.420227 670.264893 559.190063 671.285889 C 557.458557 672.722778 556.323914 672.592773 553.311523 671.455811 C 549.638977 670.06958 548.556885 670.56897 547.328064 674.58667 C 546.611816 676.928101 545.991272 681.719238 545.513306 685.253662 C 544.940002 689.494263 544.33429 691.721802 543.066833 691.721802 C 542.010498 691.721802 541.324463 690.231812 540.949402 688.557617 C 540.574341 686.883301 539.927307 680.467163 539.385498 673.770508 C 538.492249 662.730347 537.253235 661.805542 536.539001 667.626709 C 536.105713 671.157715 535.339722 674.616699 534.460938 675.495483 C 533.232727 676.723633 532.486389 676.476196 530.641602 674.819946 C 529.321899 673.63501 526.75708 671.908081 524.710815 670.981934 C 522.664551 670.05603 520.801392 669.061157 520.801392 668.352051 C 520.801392 667.643066 522.475586 667.345459 524.521851 667.690796 C 526.568054 668.036255 529.141785 668.56189 530.241333 668.859009 C 531.862671 669.297119 533.041687 666.944092 533.83728 655.971802 C 534.376831 648.530884 535.355774 640.446167 535.949097 637.898193 C 536.542297 635.350464 537.085632 632.839233 537.973022 632.54895 C 538.923401 632.238159 539.510498 634.052979 539.929077 636.69397 C 540.319885 639.159912 540.774597 646.969238 541.216614 654.038086 C 541.65863 661.106812 542.880066 667.499634 543.203918 668.485107 C 543.662781 669.881592 544.483215 670.03125 546.22522 668.289307 C 547.454407 667.060059 549.153442 666.369873 550.344604 666.715454 C 551.535889 667.060669 553.62146 667.486816 554.877014 668.005005 C 556.606262 668.71875 557.812439 667.667847 559.851379 663.671265 C 561.331787 660.769287 563.74292 657.84668 564.877747 656.904785 C 566.026672 655.951416 567.904114 655.362183 569.455139 655.854492 C 570.987183 656.340698 573.213379 658.674072 574.402283 661.039673 C 575.591064 663.405029 577.299255 666.120605 578.198242 667.07373 C 579.517334 668.472534 580.312622 668.276733 582.319519 666.059082 C 583.687256 664.547852 585.469971 663.821655 586.663818 663.821655 C 587.857666 663.821655 589.503113 664.672485 590.397888 666.105225 C 591.292664 667.537964 593.746521 668.718628 595.390808 668.960083 C 597.034973 669.20166 598.63092 670.160156 598.937256 671.090332 C 599.297791 672.185059 598.096985 672.781372 595.532471 672.781372 C 593.288574 672.781372 591.185791 671.608521 589.798523 670.075684 L 586.671997 667.368408 Z"/>
        </g>
    </g>
</svg>
